<?xml version="1.0" standalone="no"?>
<!DOCTYPE svg PUBLIC "-//W3C//DTD SVG 20010904//EN"
 "http://www.w3.org/TR/2001/REC-SVG-20010904/DTD/svg10.dtd">
<svg version="1.0" xmlns="http://www.w3.org/2000/svg"
 width="1024.000000pt" height="1024.000000pt" viewBox="0 0 1024.000000 1024.000000"
 preserveAspectRatio="xMidYMid meet">
<metadata>
Created by potrace 1.11, written by Peter Selinger 2001-2013
</metadata>
<g transform="translate(0.000000,1024.000000) scale(0.100000,-0.100000)"
fill="#000000" stroke="none">
<path d="M853 10225 c-406 -74 -716 -362 -826 -770 l-22 -80 -2 -4223 -3
-4223 21 -102 c85 -419 413 -740 828 -811 86 -15 476 -16 4271 -16 3795 0
4185 1 4271 16 415 71 743 392 828 811 l21 102 -3 4223 -2 4223 -22 80 c-94
349 -338 617 -659 726 -189 64 150 59 -4443 58 -3390 -1 -4200 -3 -4258 -14z
m5242 -2155 c478 -53 784 -135 1087 -292 66 -34 156 -87 201 -117 l82 -56 3
-447 2 -448 -460 0 -460 0 0 279 0 279 -72 30 c-308 128 -830 182 -1218 126
-449 -65 -801 -261 -1069 -594 -311 -386 -467 -868 -501 -1540 -37 -744 121
-1367 453 -1793 304 -389 697 -607 1242 -689 120 -18 613 -18 755 0 345 44
642 138 887 282 l81 49 171 -272 171 -271 -68 -43 c-93 -60 -318 -173 -430
-217 -513 -201 -1354 -253 -2012 -125 -725 142 -1329 541 -1700 1124 -183 288
-326 663 -394 1035 -80 436 -83 942 -10 1405 89 561 295 1049 599 1420 213
259 525 500 830 640 285 131 565 201 975 245 111 11 726 5 855 -10z"/>
</g>
</svg>
